# AST/ASF file generated using VICON BodyLanguage
# -----------------------------------------------
:version 1.10
:name VICON
:units
  mass 1.0
  length 0.45
  angle deg
:documentation
   .ast/.asf automatically generated from VICON data using
   VICON BodyBuilder and BodyLanguage model FoxedUp or BRILLIANT.MOD
:root
   order TX TY TZ RX RY RZ
   axis XYZ
   position 0 0 0  
   orientation 0 0 0 
:bonedata
  begin
     id 1 
     name lhipjoint
     direction 0.78388 -0.462562 0.414208 
     length 3.01181 
     axis 0 0 0  XYZ
  end
  begin
     id 2 
     name lfemur
     direction 0.34202 -0.939693 0  
     length 6.04673  
     axis 0 0 20  XYZ
    dof rx ry rz
    limits (-160.0 20.0)
           (-70.0 70.0)
           (-60.0 70.0)
  end
  begin
     id 3 
     name ltibia
     direction 0.34202 -0.939693 0   
     length 7.211   
     axis 0 0 20   XYZ
    dof rx
    limits (-10.0 170.0)
  end
  begin
     id 4 
     name lfoot
     direction 0.121887 -0.334882 0.934344   
     length 2.13567   
     axis -90 7.62852e-016 20   XYZ
    dof rx rz
    limits (-45.0 90.0)
           (-70.0 20.0)
  end
  begin
     id 5 
     name ltoes
     direction 1.53555e-011 -4.2179e-011 1   
     length 1.05957   
     axis -90 7.62852e-016 20   XYZ
    dof rx
    limits (-90.0 20.0)
  end
  begin
     id 6 
     name rhipjoint
     direction -0.769387 -0.475875 0.426129   
     length 2.92756  
     axis 0 0 0  XYZ 
  end
  begin
     id 7 
     name rfemur
     direction -0.34202 -0.939693 0   
     length 6.35468   
     axis 0 0 -20   XYZ
    dof rx ry rz
    limits (-160.0 20.0)
           (-70.0 70.0)
           (-70.0 60.0)
  end
  begin
     id 8 
     name rtibia
     direction -0.34202 -0.939693 0   
     length 7.37886   
     axis 0 0 -20   XYZ
    dof rx
    limits (-10.0 170.0)
 end
 begin
     id 9 
     name rfoot
     direction -0.101763 -0.279592 0.954711   
     length 2.21478  
     axis -90 -7.62852e-016 -20   XYZ
    dof rx rz
    limits (-45.0 90.0)
           (-20.0 70.0)
  end
  begin
     id 10 
     name rtoes
     direction -1.53494e-011 -4.21851e-011 1   
     length 1.10506   
     axis -90 -7.62852e-016 -20   XYZ
    dof rx
    limits (-90.0 20.0)
  end
  begin
     id 11 
     name lowerback
     direction 0.00747405 0.999267 0.0375481   
     length 2.13259   
     axis 0 0 0   XYZ
    dof rx ry rz
    limits (-20.0 45.0)
           (-30.0 30.0)
           (-30.0 30.0)
  end
  begin
     id 12 
     name upperback
     direction 0.00661626 0.996177 0.0871029   
     length 2.10528   
     axis 0 0 0   XYZ
    dof rx ry rz
    limits (-20.0 45.0)
           (-30.0 30.0)
           (-30.0 30.0)
  end
  begin
     id 13 
     name thorax
     direction 0.00320659 0.997679 0.0680167   
     length 2.11338   
     axis 0 0 0   XYZ
    dof rx ry rz
    limits (-20.0 45.0)
           (-30.0 30.0)
           (-30.0 30.0)
  end
  begin
     id 14 
     name lowerneck
     direction 0.0374841 0.973033 0.227602   
     length 1.42765   
     axis 0 0 0   XYZ
    dof rx ry rz
    limits (-20.0 45.0)
           (-30.0 30.0)
           (-30.0 30.0)
  end
  begin
     id 15 
     name upperneck
     direction 0.00481585 0.989155 -0.146795   
     length 1.47593   
     axis 0 0 0   XYZ
    dof rx ry rz
    limits (-20.0 45.0)
           (-30.0 30.0)
           (-30.0 30.0)
  end
  begin
     id 16
     name head
     direction -0.00292522 0.997206 -0.0746423  
     length 1.48116  
     axis 0 0 0   XYZ
    dof rx ry rz
    limits (-20.0 45.0)
           (-30.0 30.0)
           (-30.0 30.0)
  end
  begin
     id 17 
     name lclavicle
     direction 0.951444 0.305606 0.0368784  
     length 3.01855  
     axis 0 0 0   XYZ
    dof ry rz
    limits (-20.0 10.0)
           (0.0 20.0)
  end
  begin
     id 18 
     name lhumerus
     direction 1 -4.48977e-011 2.61664e-027   
     length 5.52731   
     axis 180 -30 -90   XYZ
    dof rx ry rz
    limits (-60.0 90.0)
           (-90.0 90.0)
           (-90.0 90.0)
  end
  begin
     id 19
     name lradius
     direction 1 -4.48944e-011 8.22157e-027   
     length 3.11059   
     axis 180 -30 -90   XYZ
    dof rx
    limits (-10.0 170.0)
  end
  begin
     id 20
     name lwrist
     direction 1 -4.48976e-011 1.5779e-026   
     length 1.5553   
     axis -1.15221e-014 90 90   XYZ
    dof ry
    limits (-180.0 0.0)
 end
  begin
     id 21 
     name lhand
     direction 1 -4.49025e-011 3.1558e-026   
     length 0.419626   
     axis -2.01367e-014 90 90   XYZ
    dof rx rz
    limits (-90.0 90.0)
           (-45.0 45.0)
  end
  begin
     id 22 
     name lfingers
     direction 1 -4.4904e-011 6.31161e-026   
     length 0.338313   
     axis -4.02734e-014 90 90   XYZ
    dof rx
    limits (0.0 90.0)
  end
  begin
     id 23
     name lthumb
     direction 0.707107 -6.35004e-011 0.707107   
     length 0.485752   
     axis -90 45 2.85299e-015   XYZ
    dof rx rz
    limits (-45.0 45.0)
           (-45.0 45.0)
  end
  begin
     id 24 
     name rclavicle
     direction -0.968876 0.223791 0.105816   
     length 3.04177  
     axis 0 0 0   XYZ 
    dof ry rz
    limits (-10.0 20.0)
           (-20.0 0.0)
  end
  begin
     id 25 
     name rhumerus
     direction -1 -4.48962e-011 -1.01384e-027  
     length 5.25396   
     axis 180 30 90   XYZ
    dof rx ry rz
    limits (-90.0 60.0)
           (-90.0 90.0)
           (-90.0 90.0)
  end
  begin
     id 26 
     name rradius
     direction -1 -4.48955e-011 8.88542e-027   
     length 3.10567   
     axis 180 30 90   XYZ
    dof rx
    limits (-10.0 170.0)
  end
  begin
     id 27 
     name rwrist
     direction -1 -4.48994e-011 1.5779e-026   
     length 1.55283   
     axis -1.15221e-014 -90 -90   XYZ
    dof ry
    limits (-180.0 0.0)
  end
  begin
     id 28
     name rhand
     direction -1 -4.48891e-011 3.1558e-026   
     length 0.498676   
     axis -2.01367e-014 -90 -90   XYZ
    dof rx rz
    limits (-90.0 90.0)
           (-45.0 45.0)
  end
  begin
     id 29
     name rfingers
     direction -1 -4.48972e-011 6.31161e-026   
     length 0.402045   
     axis -4.02734e-014 -90 -90   XYZ
    dof rx
    limits (0.0 90.0)
  end
  begin
     id 30
     name rthumb
     direction -0.707107 -6.34849e-011 0.707107   
     length 0.577259   
     axis -90 -45 -2.85299e-015   XYZ
    dof rx rz
    limits (-45.0 45.0)
           (-45.0 45.0)
  end
:hierarchy
  begin
    root lhipjoint rhipjoint lowerback
    lhipjoint lfemur
    lfemur ltibia
    ltibia lfoot
    lfoot ltoes
    rhipjoint rfemur
    rfemur rtibia
    rtibia rfoot
    rfoot rtoes
    lowerback upperback
    upperback thorax
    thorax lowerneck lclavicle rclavicle
    lowerneck upperneck
    upperneck head
    lclavicle lhumerus
    lhumerus lradius
    lradius lwrist
    lwrist lhand lthumb
    lhand lfingers
    rclavicle rhumerus
    rhumerus rradius
    rradius rwrist
    rwrist rhand rthumb
    rhand rfingers
  end

#!OML:ASF H:\Pregnant\Project 1\Capture day 1\Session 1\femalepreg.ASF
:FULLY-SPECIFIED
:DEGREES
896
root 7.34477 15.673 25.1332 187.795 -68.5515 -164.373
lowerback -13.9417 3.66801 -3.55821
upperback -9.62871 4.54047 2.00033
thorax -2.86677 2.23003 4.59877
lowerneck -25.3841 5.44617 5.73251
upperneck 33.2031 4.82583 0.387444
head 16.3254 2.5968 0.158465
rclavicle 5.43707e-015 8.94531e-015
rhumerus -61.3224 -26.2897 -17.0957
rradius 139.64
rwrist 20.8033
rhand -34.6081 -21.565
rfingers 7.12502
rthumb -7.76655 -51.4024
lclavicle 5.43707e-015 8.94531e-015
lhumerus -63.2703 16.0833 25.948
lradius 122.667
lwrist 26.2402
lhand -34.2035 -0.711311
lfingers 7.12502
lthumb -7.37598 29.1401
rfemur -117.058 -17.2293 78.1983
rtibia 156.225
rfoot -4.92744 -26.3261
rtoes 13.6076
lfemur -25.4706 -9.78633 -21.5725
ltibia 6.67836
lfoot -1.79749 20.0914
ltoes 14.7435
897
root 7.3497 15.6772 25.1265 187.616 -68.6243 -164.113
lowerback -14.0247 3.63677 -3.56897
upperback -9.60198 4.50288 2.04889
thorax -2.79549 2.21144 4.65882
lowerneck -25.4357 5.43814 5.74396
upperneck 33.1053 4.81 0.391221
head 16.2887 2.59473 0.155352
rclavicle -2.74571e-015 -2.29099e-014
rhumerus -61.7467 -25.5752 -19.5033
rradius 140.675
rwrist 21.3804
rhand -35.9162 -21.2249
rfingers 7.12502
rthumb -9.02892 -51.0117
lclavicle -2.74571e-015 -2.29099e-014
lhumerus -63.8288 15.3418 28.6241
lradius 123.585
lwrist 25.647
lhand -34.6776 -1.45989
lfingers 7.12502
lthumb -7.83363 28.375
rfemur -117.059 -17.3024 78.2695
rtibia 156.186
rfoot -4.84528 -26.1894
rtoes 13.5517
lfemur -25.563 -9.85095 -21.4573
ltibia 6.72807
lfoot -1.81231 20.1241
ltoes 14.7509
898
root 7.35475 15.6812 25.1197 187.434 -68.6977 -163.858
lowerback -14.1264 3.59385 -3.59778
upperback -9.55146 4.45395 2.11632
thorax -2.69075 2.18813 4.74974
lowerneck -25.4995 5.43726 5.75336
upperneck 32.9969 4.81491 0.372481
head 16.2509 2.59774 0.147509
rclavicle -2.14517e-014 2.03754e-015
rhumerus -62.0917 -24.8386 -22.0219
rradius 141.554
rwrist 21.9342
rhand -37.3265 -20.7386
rfingers 7.12502
rthumb -10.3896 -50.4619
lclavicle -2.14517e-014 2.03754e-015
lhumerus -64.3682 14.6363 31.4073
lradius 124.377
lwrist 25.0275
lhand -35.1848 -2.22199
lfingers 7.12502
lthumb -8.32311 27.594
rfemur -117.059 -17.3807 78.3408
rtibia 156.149
rfoot -4.76255 -26.0595
rtoes 13.4797
lfemur -25.6415 -9.91827 -21.3491
ltibia 6.76775
lfoot -1.819 20.1588
ltoes 14.7554
899
root 7.35989 15.6848 25.1132 187.249 -68.7693 -163.608
lowerback -14.2326 3.54457 -3.63191
upperback -9.48903 4.3982 2.19215
thorax -2.5712 2.16162 4.85241
lowerneck -25.5648 5.44199 5.76218
upperneck 32.8843 4.83268 0.34347
head 16.2121 2.60443 0.138096
rclavicle -1.347e-014 -1.3244e-014
rhumerus -62.3847 -24.0683 -24.637
rradius 142.28
rwrist 22.512
rhand -38.7541 -20.2491
rfingers 7.12502
rthumb -11.7665 -49.8986
lclavicle -1.347e-014 -1.3244e-014
lhumerus -64.8755 13.9372 34.2825
lradius 125.049
lwrist 24.4448
lhand -35.7126 -3.0196
lfingers 7.12502
lthumb -8.83245 26.7756
rfemur -117.067 -17.4645 78.4089
rtibia 156.117
rfoot -4.67662 -25.9292
rtoes 13.3902
lfemur -25.7092 -9.98537 -21.2474
ltibia 6.80409
lfoot -1.82343 20.1969
ltoes 14.7619
900
root 7.36506 15.6879 25.1069 187.064 -68.8372 -163.369
lowerback -14.3576 3.48719 -3.70818
upperback -9.40442 4.33813 2.30571
thorax -2.42458 2.13551 5.0201
lowerneck -25.6301 5.44339 5.74073
upperneck 32.7612 4.87176 0.285227
head 16.1684 2.61175 0.125532
rclavicle -4.09858e-014 -3.36812e-014
rhumerus -62.5965 -23.2585 -27.2879
rradius 142.853
rwrist 23.1437
rhand -40.1936 -19.7467
rfingers 7.12502
rthumb -13.1544 -49.3118
lclavicle -4.09858e-014 -3.36812e-014
lhumerus -65.3499 13.2571 37.2934
lradius 125.603
lwrist 23.9247
lhand -36.2387 -3.82379
lfingers 7.12502
lthumb -9.34016 25.9493
rfemur -117.068 -17.5512 78.4767
rtibia 156.084
rfoot -4.57756 -25.8163
rtoes 13.2296
lfemur -25.7657 -10.0508 -21.1548
ltibia 6.8426
lfoot -1.83238 20.2379
ltoes 14.7815
901
root 7.37014 15.6907 25.1009 186.882 -68.9006 -163.143
lowerback -14.468 3.43267 -3.7704
upperback -9.32295 4.28006 2.40573
thorax -2.28648 2.10932 5.1647
lowerneck -25.6846 5.4475 5.73274
upperneck 32.6395 4.90813 0.228551
head 16.1236 2.61981 0.11059
rclavicle 1.1594e-013 5.38209e-014
rhumerus -62.795 -22.3976 -30.0194
rradius 143.299
rwrist 23.8452
rhand -41.6115 -19.3559
rfingers 7.12502
rthumb -14.5208 -48.8278
lclavicle 1.1594e-013 5.38209e-014
lhumerus -65.7623 12.5395 40.341
lradius 126.036
lwrist 23.5297
lhand -36.7137 -4.61349
lfingers 7.12502
lthumb -9.79838 25.1385
rfemur -117.063 -17.6405 78.5419
rtibia 156.049
rfoot -4.45724 -25.7206
rtoes 13.008
lfemur -25.8166 -10.1129 -21.0708
ltibia 6.89172
lfoot -1.85378 20.2834
ltoes 14.8354
